{
  "asset": {
    "version": "2.0",
    "generator": "THREE.GLTFExporter r180"
  },
  "scenes": [
    {
      "name": "Scene",
      "nodes": [
        0,
        1,
        2,
        3,
        4,
        5
      ]
    }
  ],
  "scene": 0,
  "nodes": [
    {
      "matrix": [
        -0.5111268254225443,
        0,
        0,
        0,
        0,
        1.2224022941117876,
        0,
        0,
        0,
        0,
        0.5673723911335544,
        0,
        0,
        0.7537399142132662,
        0.06461347309757515,
        1
      ],
      "name": "Box",
      "mesh": 0
    },
    {
      "matrix": [
        -0.5111268254225443,
        0,
        0,
        0,
        0,
        1.2847572707575228,
        0,
        0,
        0,
        0,
        1.179098267791608,
        0,
        0,
        1.9160128515826307,
        0.36270514646307717,
        1
      ],
      "name": "Box",
      "mesh": 0
    },
    {
      "matrix": [
        -0.5111268254225443,
        0,
        0,
        0,
        0,
        1.2291074271264217,
        0,
        0,
        0,
        0,
        0.5673723911335544,
        0,
        0,
        0.7537399142132662,
        0.6709031988158161,
        1
      ],
      "name": "Box",
      "mesh": 0
    },
    {
      "matrix": [
        -0.5111268254225443,
        0,
        0,
        0,
        0,
        0.9952101916809795,
        0,
        0,
        0,
        0,
        0.5673723911335544,
        0,
        0,
        2.0457780945662347,
        -0.45628411948295566,
        1
      ],
      "name": "Box",
      "mesh": 0
    },
    {
      "matrix": [
        -0.5111268254225443,
        0,
        0,
        0,
        0,
        0.9952101916809795,
        0,
        0,
        0,
        0,
        0.5673723911335544,
        0,
        0,
        2.0457780945662347,
        1.129094347240926,
        1
      ],
      "name": "Box",
      "mesh": 0
    },
    {
      "matrix": [
        0.2557130501276545,
        0,
        0,
        0,
        0,
        0.195856947640477,
        0,
        0,
        0,
        0,
        0.25384729734081923,
        0,
        0.06037704338185884,
        2.7717502513857597,
        0.30896873703534233,
        1
      ],
      "name": "Capsule",
      "mesh": 1
    }
  ],
  "bufferViews": [
    {
      "buffer": 0,
      "byteOffset": 0,
      "byteLength": 288,
      "target": 34962,
      "byteStride": 12
    },
    {
      "buffer": 0,
      "byteOffset": 288,
      "byteLength": 288,
      "target": 34962,
      "byteStride": 12
    },
    {
      "buffer": 0,
      "byteOffset": 576,
      "byteLength": 192,
      "target": 34962,
      "byteStride": 8
    },
    {
      "buffer": 0,
      "byteOffset": 768,
      "byteLength": 72,
      "target": 34963
    },
    {
      "buffer": 0,
      "byteOffset": 840,
      "byteLength": 1080,
      "target": 34962,
      "byteStride": 12
    },
    {
      "buffer": 0,
      "byteOffset": 1920,
      "byteLength": 1080,
      "target": 34962,
      "byteStride": 12
    },
    {
      "buffer": 0,
      "byteOffset": 3000,
      "byteLength": 720,
      "target": 34962,
      "byteStride": 8
    },
    {
      "buffer": 0,
      "byteOffset": 3720,
      "byteLength": 864,
      "target": 34963
    }
  ],
  "buffers": [
    {
      "byteLength": 4584,
      "uri": "data:application/octet-stream;base64,"
    }
  ],
  "accessors": [
    {
      "bufferView": 0,
      "componentType": 5126,
      "count": 24,
      "max": [
        0.5,
        0.5,
        0.5
      ],
      "min": [
        -0.5,
        -0.5,
        -0.5
      ],
      "type": "VEC3"
    },
    {
      "bufferView": 1,
      "componentType": 5126,
      "count": 24,
      "max": [
        1,
        1,
        1
      ],
      "min": [
        -1,
        -1,
        -1
      ],
      "type": "VEC3"
    },
    {
      "bufferView": 2,
      "componentType": 5126,
      "count": 24,
      "max": [
        1,
        1
      ],
      "min": [
        0,
        0
      ],
      "type": "VEC2"
    },
    {
      "bufferView": 3,
      "componentType": 5123,
      "count": 36,
      "max": [
        23
      ],
      "min": [
        0
      ],
      "type": "SCALAR"
    },
    {
      "bufferView": 4,
      "componentType": 5126,
      "count": 90,
      "max": [
        1,
        1.5,
        1
      ],
      "min": [
        -1,
        -1.5,
        -1
      ],
      "type": "VEC3"
    },
    {
      "bufferView": 5,
      "componentType": 5126,
      "count": 90,
      "max": [
        1,
        1,
        1
      ],
      "min": [
        -1,
        -1,
        -1
      ],
      "type": "VEC3"
    },
    {
      "bufferView": 6,
      "componentType": 5126,
      "count": 90,
      "max": [
        1.0625,
        1
      ],
      "min": [
        -0.0625,
        0
      ],
      "type": "VEC2"
    },
    {
      "bufferView": 7,
      "componentType": 5123,
      "count": 432,
      "max": [
        89
      ],
      "min": [
        0
      ],
      "type": "SCALAR"
    }
  ],
  "materials": [
    {
      "pbrMetallicRoughness": {
        "metallicFactor": 0,
        "roughnessFactor": 1
      }
    },
    {
      "pbrMetallicRoughness": {
        "metallicFactor": 0,
        "roughnessFactor": 1
      }
    }
  ],
  "meshes": [
    {
      "primitives": [
        {
          "mode": 4,
          "attributes": {
            "POSITION": 0,
            "NORMAL": 1,
            "TEXCOORD_0": 2
          },
          "indices": 3,
          "material": 0
        }
      ]
    },
    {
      "primitives": [
        {
          "mode": 4,
          "attributes": {
            "POSITION": 4,
            "NORMAL": 5,
            "TEXCOORD_0": 6
          },
          "indices": 7,
          "material": 1
        }
      ]
    }
  ]
}